<?xml version="1.0" standalone="no"?><!DOCTYPE svg PUBLIC "-//W3C//DTD SVG 1.1//EN" "http://www.w3.org/Graphics/SVG/1.1/DTD/svg11.dtd"><svg t="1657414943206" class="icon" viewBox="0 0 1024 1024" version="1.1" xmlns="http://www.w3.org/2000/svg" p-id="14538" width="128" height="128" xmlns:xlink="http://www.w3.org/1999/xlink"><defs><style type="text/css"></style></defs><path d="M924.7 324c-20.18 0.39-36.7-16.52-36.7-36.7V136H736.71c-20.19 0-37.09-16.52-36.7-36.7A36 36 0 0 1 736 64h192a32 32 0 0 1 32 32v192a36 36 0 0 1-35.3 36zM512 862.4L204 687.45v-350.9l308-175 308 175v350.9zM276 645.55L512 779.6l236-134.05v-267.1l-236-134-236 134z m508 21z" p-id="14539" fill="#2196f3"></path><path d="M637.22 440.9a32 32 0 0 0-43.62-12L512 475.2l-82.83-47a32 32 0 0 0-31.6 55.66l82.77 47V624a32 32 0 1 0 64 0v-93.57l80.86-45.9a32 32 0 0 0 12.02-43.63zM99.3 700c20.18-0.39 36.7 16.52 36.7 36.7V888h151.29c20.19 0 37.09 16.52 36.7 36.7A36 36 0 0 1 288 960H96a32 32 0 0 1-32-32V736a36 36 0 0 1 35.3-36z" p-id="14540" fill="#2196f3"></path></svg>